<svg width="25" height="25" viewBox="0 0 25 25" fill="none" xmlns="http://www.w3.org/2000/svg">
<g clip-path="url(#clip0_1_413)">
<path d="M13.8938 1C15.5412 1.00323 16.0116 1.01708 17.0516 1.07644C18.3692 1.11515 19.2218 1.30869 19.9969 1.61837C20.772 1.92805 21.4308 2.31515 22.0897 2.97321C22.7485 3.63127 23.1748 4.28934 23.4461 5.10224C23.7174 5.91515 23.9499 6.80547 23.9886 8.04418C24.0274 9.36031 23.9499 9.78611 23.9499 13.0764L23.9496 14.7323C23.9495 14.8083 23.9495 14.8818 23.9494 14.9532L23.9488 15.3552C23.9464 16.6757 23.9383 17.1255 23.9111 17.9926C23.8724 19.3087 23.6399 20.1603 23.3686 20.9345C23.0973 21.7087 22.671 22.4055 22.0122 23.0635C21.3533 23.7216 20.6945 24.1474 19.8806 24.4184C19.0668 24.6893 18.253 24.9216 16.9353 24.9603C16.5839 24.9706 16.3014 24.9782 16.0136 24.9837L15.7956 24.9875C15.4267 24.9933 15.0205 24.9961 14.432 24.9976L14.0559 24.9983C13.9892 24.9984 13.9203 24.9985 13.8492 24.9985L10.3203 24.9984C8.50227 24.9959 8.06822 24.9835 7.01409 24.9216C5.69643 24.8829 4.84383 24.6506 4.06874 24.3797C3.29364 24.1087 2.59606 23.6829 1.93723 23.0248C1.2784 22.3668 0.852098 21.7087 0.580815 20.8958C0.309532 20.0829 0.0770041 19.27 0.0382494 17.9539C0.0304985 17.6906 0.0242978 17.4661 0.0193372 17.249L0.0127876 16.9251C0.00645768 16.5626 0.003142 16.1774 0.00140522 15.6245L0.00054113 15.2715C0.000424866 15.209 0.00032152 15.1444 0.000229657 15.0778L0 12.379C0.00466204 9.65794 0.0408331 9.27256 0.0770041 8.04418C0.115759 6.72805 0.309532 5.87644 0.61957 5.10224C0.890852 4.28934 1.31715 3.63127 1.97598 2.97321C2.63481 2.31515 3.29364 1.85063 4.10749 1.57966C4.92134 1.30869 5.73519 1.07644 7.05285 1.03773C7.97521 1.01063 8.42282 1.0025 9.73828 1.00006L13.8938 1ZM14.0918 3.2062H10.0126C9.15912 3.2074 8.65251 3.21053 8.1932 3.21875L7.98348 3.22291C7.74018 3.22822 7.49723 3.23515 7.20787 3.24418C6.00647 3.28289 5.3864 3.51515 4.96009 3.66998C4.41753 3.90224 4.02998 4.1345 3.60368 4.56031C3.21613 4.9474 2.94485 5.37321 2.71232 5.91515C2.5573 6.37966 2.32478 6.99902 2.28602 8.16031C2.27698 8.44934 2.27005 8.69201 2.26473 8.93502L2.26056 9.1445C2.25296 9.56798 2.24971 10.0317 2.24831 10.7711L2.24758 11.381C2.24752 11.4553 2.24748 11.5319 2.24745 11.611L2.24727 17.799C2.28602 18.999 2.51855 19.6184 2.67357 20.0442C2.94485 20.5861 3.17738 20.9732 3.60368 21.399C3.99123 21.8248 4.41753 22.0958 4.96009 22.328C5.42515 22.4829 6.04523 22.7151 7.20787 22.7539C8.06314 22.7806 8.53133 22.7888 9.78196 22.7914L10.4015 22.7922C10.4771 22.7923 10.5551 22.7923 10.6356 22.7924L16.8578 22.7926C18.0592 22.7539 18.6793 22.5216 19.1056 22.3668C19.6481 22.0958 20.0357 21.8635 20.462 21.4377C20.8883 21.0506 21.1596 20.6248 21.3921 20.0829C21.5471 19.6184 21.7796 18.999 21.8184 17.8377C21.8261 17.59 21.8339 17.3763 21.8413 17.1673L21.8486 16.9587C21.875 16.1916 21.8959 15.3551 21.8959 12.999L21.8956 11.381C21.8955 11.3066 21.8955 11.2346 21.8954 11.1648L21.8948 10.7711C21.8924 9.47721 21.8843 9.0274 21.8571 8.16031C21.8184 6.96031 21.5859 6.34095 21.4308 5.91515C21.1596 5.37321 20.927 4.98611 20.5007 4.56031C20.1132 4.17321 19.6869 3.90224 19.1443 3.66998C18.6793 3.51515 18.0592 3.28289 16.8965 3.24418C16.6072 3.23515 16.3642 3.22822 16.1209 3.22291L15.9112 3.21875C15.4519 3.21053 14.9453 3.2074 14.0918 3.2062ZM12.0134 6.84418C15.4626 6.84418 18.2142 9.55386 18.2142 12.999C18.2142 16.4442 15.3851 19.1539 12.0134 19.1539C8.64179 19.1539 5.85145 16.4442 5.85145 12.999C5.85145 9.63128 8.56428 6.84418 12.0134 6.84418ZM12.0134 8.97321C9.80443 8.97321 7.98296 10.7926 7.98296 12.999C7.98296 15.2055 9.76567 17.0248 12.0134 17.0248C14.2612 17.0248 16.0439 15.2442 16.0439 12.999C16.0439 10.7539 14.2612 8.97321 12.0134 8.97321ZM18.4855 5.14095C19.2774 5.14095 19.9194 5.7822 19.9194 6.57321C19.9194 7.36422 19.2774 8.00547 18.4855 8.00547C17.6935 8.00547 17.0516 7.36422 17.0516 6.57321C17.0516 5.7822 17.6935 5.14095 18.4855 5.14095Z" fill="white"/>
</g>
<defs>
<clipPath id="clip0_1_413">
<rect width="24" height="24" fill="white" transform="translate(0.015625 0.5625)"/>
</clipPath>
</defs>
</svg>
